%TF.GenerationSoftware,KiCad,Pcbnew,10.0.3*%
%TF.CreationDate,2026-06-20T17:59:41+09:00*%
%TF.ProjectId,MiP D1 mini Pack,4d695020-4431-4206-9d69-6e6920506163,3*%
%TF.SameCoordinates,Original*%
%TF.FileFunction,Legend,Bot*%
%TF.FilePolarity,Positive*%
%FSLAX46Y46*%
G04 Gerber Fmt 4.6, Leading zero omitted, Abs format (unit mm)*
G04 Created by KiCad (PCBNEW 10.0.3) date 2026-06-20 17:59:41*
%MOMM*%
%LPD*%
G01*
G04 APERTURE LIST*
%ADD10C,0.152400*%
%ADD11C,0.171450*%
%ADD12C,0.091440*%
%ADD13C,0.120000*%
G04 APERTURE END LIST*
D10*
X149116856Y-135415860D02*
X148911237Y-135991593D01*
X148911237Y-135991593D02*
X148705618Y-135415860D01*
X148458875Y-135127993D02*
X147924266Y-135127993D01*
X147924266Y-135127993D02*
X148212132Y-135456984D01*
X148212132Y-135456984D02*
X148088761Y-135456984D01*
X148088761Y-135456984D02*
X148006513Y-135498108D01*
X148006513Y-135498108D02*
X147965389Y-135539231D01*
X147965389Y-135539231D02*
X147924266Y-135621479D01*
X147924266Y-135621479D02*
X147924266Y-135827098D01*
X147924266Y-135827098D02*
X147965389Y-135909346D01*
X147965389Y-135909346D02*
X148006513Y-135950470D01*
X148006513Y-135950470D02*
X148088761Y-135991593D01*
X148088761Y-135991593D02*
X148335504Y-135991593D01*
X148335504Y-135991593D02*
X148417751Y-135950470D01*
X148417751Y-135950470D02*
X148458875Y-135909346D01*
D11*
X154584471Y-134340542D02*
X154584471Y-133368992D01*
X154584471Y-133368992D02*
X154260621Y-134062956D01*
X154260621Y-134062956D02*
X153936771Y-133368992D01*
X153936771Y-133368992D02*
X153936771Y-134340542D01*
X153474128Y-134340542D02*
X153474128Y-133692842D01*
X153474128Y-133368992D02*
X153520392Y-133415256D01*
X153520392Y-133415256D02*
X153474128Y-133461520D01*
X153474128Y-133461520D02*
X153427864Y-133415256D01*
X153427864Y-133415256D02*
X153474128Y-133368992D01*
X153474128Y-133368992D02*
X153474128Y-133461520D01*
X153011485Y-134340542D02*
X153011485Y-133368992D01*
X153011485Y-133368992D02*
X152641371Y-133368992D01*
X152641371Y-133368992D02*
X152548842Y-133415256D01*
X152548842Y-133415256D02*
X152502578Y-133461520D01*
X152502578Y-133461520D02*
X152456314Y-133554049D01*
X152456314Y-133554049D02*
X152456314Y-133692842D01*
X152456314Y-133692842D02*
X152502578Y-133785370D01*
X152502578Y-133785370D02*
X152548842Y-133831635D01*
X152548842Y-133831635D02*
X152641371Y-133877899D01*
X152641371Y-133877899D02*
X153011485Y-133877899D01*
X151299706Y-134340542D02*
X151299706Y-133368992D01*
X151299706Y-133368992D02*
X151068385Y-133368992D01*
X151068385Y-133368992D02*
X150929592Y-133415256D01*
X150929592Y-133415256D02*
X150837063Y-133507785D01*
X150837063Y-133507785D02*
X150790799Y-133600313D01*
X150790799Y-133600313D02*
X150744535Y-133785370D01*
X150744535Y-133785370D02*
X150744535Y-133924163D01*
X150744535Y-133924163D02*
X150790799Y-134109220D01*
X150790799Y-134109220D02*
X150837063Y-134201749D01*
X150837063Y-134201749D02*
X150929592Y-134294278D01*
X150929592Y-134294278D02*
X151068385Y-134340542D01*
X151068385Y-134340542D02*
X151299706Y-134340542D01*
X149819249Y-134340542D02*
X150374420Y-134340542D01*
X150096835Y-134340542D02*
X150096835Y-133368992D01*
X150096835Y-133368992D02*
X150189363Y-133507785D01*
X150189363Y-133507785D02*
X150281892Y-133600313D01*
X150281892Y-133600313D02*
X150374420Y-133646578D01*
X148662641Y-134340542D02*
X148662641Y-133692842D01*
X148662641Y-133785370D02*
X148616377Y-133739106D01*
X148616377Y-133739106D02*
X148523848Y-133692842D01*
X148523848Y-133692842D02*
X148385055Y-133692842D01*
X148385055Y-133692842D02*
X148292527Y-133739106D01*
X148292527Y-133739106D02*
X148246263Y-133831635D01*
X148246263Y-133831635D02*
X148246263Y-134340542D01*
X148246263Y-133831635D02*
X148199998Y-133739106D01*
X148199998Y-133739106D02*
X148107470Y-133692842D01*
X148107470Y-133692842D02*
X147968677Y-133692842D01*
X147968677Y-133692842D02*
X147876148Y-133739106D01*
X147876148Y-133739106D02*
X147829884Y-133831635D01*
X147829884Y-133831635D02*
X147829884Y-134340542D01*
X147367241Y-134340542D02*
X147367241Y-133692842D01*
X147367241Y-133368992D02*
X147413505Y-133415256D01*
X147413505Y-133415256D02*
X147367241Y-133461520D01*
X147367241Y-133461520D02*
X147320977Y-133415256D01*
X147320977Y-133415256D02*
X147367241Y-133368992D01*
X147367241Y-133368992D02*
X147367241Y-133461520D01*
X146904598Y-133692842D02*
X146904598Y-134340542D01*
X146904598Y-133785370D02*
X146858334Y-133739106D01*
X146858334Y-133739106D02*
X146765805Y-133692842D01*
X146765805Y-133692842D02*
X146627012Y-133692842D01*
X146627012Y-133692842D02*
X146534484Y-133739106D01*
X146534484Y-133739106D02*
X146488220Y-133831635D01*
X146488220Y-133831635D02*
X146488220Y-134340542D01*
X146025577Y-134340542D02*
X146025577Y-133692842D01*
X146025577Y-133368992D02*
X146071841Y-133415256D01*
X146071841Y-133415256D02*
X146025577Y-133461520D01*
X146025577Y-133461520D02*
X145979313Y-133415256D01*
X145979313Y-133415256D02*
X146025577Y-133368992D01*
X146025577Y-133368992D02*
X146025577Y-133461520D01*
X144822705Y-134340542D02*
X144822705Y-133368992D01*
X144822705Y-133368992D02*
X144452591Y-133368992D01*
X144452591Y-133368992D02*
X144360062Y-133415256D01*
X144360062Y-133415256D02*
X144313798Y-133461520D01*
X144313798Y-133461520D02*
X144267534Y-133554049D01*
X144267534Y-133554049D02*
X144267534Y-133692842D01*
X144267534Y-133692842D02*
X144313798Y-133785370D01*
X144313798Y-133785370D02*
X144360062Y-133831635D01*
X144360062Y-133831635D02*
X144452591Y-133877899D01*
X144452591Y-133877899D02*
X144822705Y-133877899D01*
X143434777Y-134340542D02*
X143434777Y-133831635D01*
X143434777Y-133831635D02*
X143481041Y-133739106D01*
X143481041Y-133739106D02*
X143573569Y-133692842D01*
X143573569Y-133692842D02*
X143758627Y-133692842D01*
X143758627Y-133692842D02*
X143851155Y-133739106D01*
X143434777Y-134294278D02*
X143527305Y-134340542D01*
X143527305Y-134340542D02*
X143758627Y-134340542D01*
X143758627Y-134340542D02*
X143851155Y-134294278D01*
X143851155Y-134294278D02*
X143897419Y-134201749D01*
X143897419Y-134201749D02*
X143897419Y-134109220D01*
X143897419Y-134109220D02*
X143851155Y-134016692D01*
X143851155Y-134016692D02*
X143758627Y-133970428D01*
X143758627Y-133970428D02*
X143527305Y-133970428D01*
X143527305Y-133970428D02*
X143434777Y-133924163D01*
X142555756Y-134294278D02*
X142648284Y-134340542D01*
X142648284Y-134340542D02*
X142833341Y-134340542D01*
X142833341Y-134340542D02*
X142925870Y-134294278D01*
X142925870Y-134294278D02*
X142972134Y-134248013D01*
X142972134Y-134248013D02*
X143018398Y-134155485D01*
X143018398Y-134155485D02*
X143018398Y-133877899D01*
X143018398Y-133877899D02*
X142972134Y-133785370D01*
X142972134Y-133785370D02*
X142925870Y-133739106D01*
X142925870Y-133739106D02*
X142833341Y-133692842D01*
X142833341Y-133692842D02*
X142648284Y-133692842D01*
X142648284Y-133692842D02*
X142555756Y-133739106D01*
X142139377Y-134340542D02*
X142139377Y-133368992D01*
X142046849Y-133970428D02*
X141769263Y-134340542D01*
X141769263Y-133692842D02*
X142139377Y-134062956D01*
D12*
X167714285Y-112894530D02*
X167714285Y-112071570D01*
X167285714Y-112894530D02*
X167285714Y-112463456D01*
X167285714Y-112463456D02*
X167333333Y-112385079D01*
X167333333Y-112385079D02*
X167428571Y-112345890D01*
X167428571Y-112345890D02*
X167571428Y-112345890D01*
X167571428Y-112345890D02*
X167666666Y-112385079D01*
X167666666Y-112385079D02*
X167714285Y-112424267D01*
X166952380Y-112345890D02*
X166571428Y-112345890D01*
X166809523Y-112071570D02*
X166809523Y-112776964D01*
X166809523Y-112776964D02*
X166761904Y-112855342D01*
X166761904Y-112855342D02*
X166666666Y-112894530D01*
X166666666Y-112894530D02*
X166571428Y-112894530D01*
X166380951Y-112345890D02*
X165999999Y-112345890D01*
X166238094Y-112071570D02*
X166238094Y-112776964D01*
X166238094Y-112776964D02*
X166190475Y-112855342D01*
X166190475Y-112855342D02*
X166095237Y-112894530D01*
X166095237Y-112894530D02*
X165999999Y-112894530D01*
X165666665Y-112345890D02*
X165666665Y-113168850D01*
X165666665Y-112385079D02*
X165571427Y-112345890D01*
X165571427Y-112345890D02*
X165380951Y-112345890D01*
X165380951Y-112345890D02*
X165285713Y-112385079D01*
X165285713Y-112385079D02*
X165238094Y-112424267D01*
X165238094Y-112424267D02*
X165190475Y-112502644D01*
X165190475Y-112502644D02*
X165190475Y-112737776D01*
X165190475Y-112737776D02*
X165238094Y-112816153D01*
X165238094Y-112816153D02*
X165285713Y-112855342D01*
X165285713Y-112855342D02*
X165380951Y-112894530D01*
X165380951Y-112894530D02*
X165571427Y-112894530D01*
X165571427Y-112894530D02*
X165666665Y-112855342D01*
X164809522Y-112855342D02*
X164714284Y-112894530D01*
X164714284Y-112894530D02*
X164523808Y-112894530D01*
X164523808Y-112894530D02*
X164428570Y-112855342D01*
X164428570Y-112855342D02*
X164380951Y-112776964D01*
X164380951Y-112776964D02*
X164380951Y-112737776D01*
X164380951Y-112737776D02*
X164428570Y-112659399D01*
X164428570Y-112659399D02*
X164523808Y-112620210D01*
X164523808Y-112620210D02*
X164666665Y-112620210D01*
X164666665Y-112620210D02*
X164761903Y-112581022D01*
X164761903Y-112581022D02*
X164809522Y-112502644D01*
X164809522Y-112502644D02*
X164809522Y-112463456D01*
X164809522Y-112463456D02*
X164761903Y-112385079D01*
X164761903Y-112385079D02*
X164666665Y-112345890D01*
X164666665Y-112345890D02*
X164523808Y-112345890D01*
X164523808Y-112345890D02*
X164428570Y-112385079D01*
X163952379Y-112816153D02*
X163904760Y-112855342D01*
X163904760Y-112855342D02*
X163952379Y-112894530D01*
X163952379Y-112894530D02*
X163999998Y-112855342D01*
X163999998Y-112855342D02*
X163952379Y-112816153D01*
X163952379Y-112816153D02*
X163952379Y-112894530D01*
X163952379Y-112385079D02*
X163904760Y-112424267D01*
X163904760Y-112424267D02*
X163952379Y-112463456D01*
X163952379Y-112463456D02*
X163999998Y-112424267D01*
X163999998Y-112424267D02*
X163952379Y-112385079D01*
X163952379Y-112385079D02*
X163952379Y-112463456D01*
X162761904Y-112032382D02*
X163619046Y-113090473D01*
X161714285Y-112032382D02*
X162571427Y-113090473D01*
X160952380Y-112345890D02*
X160952380Y-113012096D01*
X160952380Y-113012096D02*
X160999999Y-113090473D01*
X160999999Y-113090473D02*
X161047618Y-113129662D01*
X161047618Y-113129662D02*
X161142856Y-113168850D01*
X161142856Y-113168850D02*
X161285713Y-113168850D01*
X161285713Y-113168850D02*
X161380951Y-113129662D01*
X160952380Y-112855342D02*
X161047618Y-112894530D01*
X161047618Y-112894530D02*
X161238094Y-112894530D01*
X161238094Y-112894530D02*
X161333332Y-112855342D01*
X161333332Y-112855342D02*
X161380951Y-112816153D01*
X161380951Y-112816153D02*
X161428570Y-112737776D01*
X161428570Y-112737776D02*
X161428570Y-112502644D01*
X161428570Y-112502644D02*
X161380951Y-112424267D01*
X161380951Y-112424267D02*
X161333332Y-112385079D01*
X161333332Y-112385079D02*
X161238094Y-112345890D01*
X161238094Y-112345890D02*
X161047618Y-112345890D01*
X161047618Y-112345890D02*
X160952380Y-112385079D01*
X160476189Y-112894530D02*
X160476189Y-112345890D01*
X160476189Y-112071570D02*
X160523808Y-112110759D01*
X160523808Y-112110759D02*
X160476189Y-112149947D01*
X160476189Y-112149947D02*
X160428570Y-112110759D01*
X160428570Y-112110759D02*
X160476189Y-112071570D01*
X160476189Y-112071570D02*
X160476189Y-112149947D01*
X160142856Y-112345890D02*
X159761904Y-112345890D01*
X159999999Y-112071570D02*
X159999999Y-112776964D01*
X159999999Y-112776964D02*
X159952380Y-112855342D01*
X159952380Y-112855342D02*
X159857142Y-112894530D01*
X159857142Y-112894530D02*
X159761904Y-112894530D01*
X159428570Y-112894530D02*
X159428570Y-112071570D01*
X158999999Y-112894530D02*
X158999999Y-112463456D01*
X158999999Y-112463456D02*
X159047618Y-112385079D01*
X159047618Y-112385079D02*
X159142856Y-112345890D01*
X159142856Y-112345890D02*
X159285713Y-112345890D01*
X159285713Y-112345890D02*
X159380951Y-112385079D01*
X159380951Y-112385079D02*
X159428570Y-112424267D01*
X158095237Y-112345890D02*
X158095237Y-112894530D01*
X158523808Y-112345890D02*
X158523808Y-112776964D01*
X158523808Y-112776964D02*
X158476189Y-112855342D01*
X158476189Y-112855342D02*
X158380951Y-112894530D01*
X158380951Y-112894530D02*
X158238094Y-112894530D01*
X158238094Y-112894530D02*
X158142856Y-112855342D01*
X158142856Y-112855342D02*
X158095237Y-112816153D01*
X157619046Y-112894530D02*
X157619046Y-112071570D01*
X157619046Y-112385079D02*
X157523808Y-112345890D01*
X157523808Y-112345890D02*
X157333332Y-112345890D01*
X157333332Y-112345890D02*
X157238094Y-112385079D01*
X157238094Y-112385079D02*
X157190475Y-112424267D01*
X157190475Y-112424267D02*
X157142856Y-112502644D01*
X157142856Y-112502644D02*
X157142856Y-112737776D01*
X157142856Y-112737776D02*
X157190475Y-112816153D01*
X157190475Y-112816153D02*
X157238094Y-112855342D01*
X157238094Y-112855342D02*
X157333332Y-112894530D01*
X157333332Y-112894530D02*
X157523808Y-112894530D01*
X157523808Y-112894530D02*
X157619046Y-112855342D01*
X156714284Y-112816153D02*
X156666665Y-112855342D01*
X156666665Y-112855342D02*
X156714284Y-112894530D01*
X156714284Y-112894530D02*
X156761903Y-112855342D01*
X156761903Y-112855342D02*
X156714284Y-112816153D01*
X156714284Y-112816153D02*
X156714284Y-112894530D01*
X155809523Y-112855342D02*
X155904761Y-112894530D01*
X155904761Y-112894530D02*
X156095237Y-112894530D01*
X156095237Y-112894530D02*
X156190475Y-112855342D01*
X156190475Y-112855342D02*
X156238094Y-112816153D01*
X156238094Y-112816153D02*
X156285713Y-112737776D01*
X156285713Y-112737776D02*
X156285713Y-112502644D01*
X156285713Y-112502644D02*
X156238094Y-112424267D01*
X156238094Y-112424267D02*
X156190475Y-112385079D01*
X156190475Y-112385079D02*
X156095237Y-112345890D01*
X156095237Y-112345890D02*
X155904761Y-112345890D01*
X155904761Y-112345890D02*
X155809523Y-112385079D01*
X155238094Y-112894530D02*
X155333332Y-112855342D01*
X155333332Y-112855342D02*
X155380951Y-112816153D01*
X155380951Y-112816153D02*
X155428570Y-112737776D01*
X155428570Y-112737776D02*
X155428570Y-112502644D01*
X155428570Y-112502644D02*
X155380951Y-112424267D01*
X155380951Y-112424267D02*
X155333332Y-112385079D01*
X155333332Y-112385079D02*
X155238094Y-112345890D01*
X155238094Y-112345890D02*
X155095237Y-112345890D01*
X155095237Y-112345890D02*
X154999999Y-112385079D01*
X154999999Y-112385079D02*
X154952380Y-112424267D01*
X154952380Y-112424267D02*
X154904761Y-112502644D01*
X154904761Y-112502644D02*
X154904761Y-112737776D01*
X154904761Y-112737776D02*
X154952380Y-112816153D01*
X154952380Y-112816153D02*
X154999999Y-112855342D01*
X154999999Y-112855342D02*
X155095237Y-112894530D01*
X155095237Y-112894530D02*
X155238094Y-112894530D01*
X154476189Y-112894530D02*
X154476189Y-112345890D01*
X154476189Y-112424267D02*
X154428570Y-112385079D01*
X154428570Y-112385079D02*
X154333332Y-112345890D01*
X154333332Y-112345890D02*
X154190475Y-112345890D01*
X154190475Y-112345890D02*
X154095237Y-112385079D01*
X154095237Y-112385079D02*
X154047618Y-112463456D01*
X154047618Y-112463456D02*
X154047618Y-112894530D01*
X154047618Y-112463456D02*
X153999999Y-112385079D01*
X153999999Y-112385079D02*
X153904761Y-112345890D01*
X153904761Y-112345890D02*
X153761904Y-112345890D01*
X153761904Y-112345890D02*
X153666665Y-112385079D01*
X153666665Y-112385079D02*
X153619046Y-112463456D01*
X153619046Y-112463456D02*
X153619046Y-112894530D01*
X152428571Y-112032382D02*
X153285713Y-113090473D01*
X152238094Y-112071570D02*
X151666666Y-112071570D01*
X151952380Y-112894530D02*
X151952380Y-112071570D01*
X151333332Y-112894530D02*
X151333332Y-112345890D01*
X151333332Y-112071570D02*
X151380951Y-112110759D01*
X151380951Y-112110759D02*
X151333332Y-112149947D01*
X151333332Y-112149947D02*
X151285713Y-112110759D01*
X151285713Y-112110759D02*
X151333332Y-112071570D01*
X151333332Y-112071570D02*
X151333332Y-112149947D01*
X150714285Y-112894530D02*
X150809523Y-112855342D01*
X150809523Y-112855342D02*
X150857142Y-112816153D01*
X150857142Y-112816153D02*
X150904761Y-112737776D01*
X150904761Y-112737776D02*
X150904761Y-112502644D01*
X150904761Y-112502644D02*
X150857142Y-112424267D01*
X150857142Y-112424267D02*
X150809523Y-112385079D01*
X150809523Y-112385079D02*
X150714285Y-112345890D01*
X150714285Y-112345890D02*
X150571428Y-112345890D01*
X150571428Y-112345890D02*
X150476190Y-112385079D01*
X150476190Y-112385079D02*
X150428571Y-112424267D01*
X150428571Y-112424267D02*
X150380952Y-112502644D01*
X150380952Y-112502644D02*
X150380952Y-112737776D01*
X150380952Y-112737776D02*
X150428571Y-112816153D01*
X150428571Y-112816153D02*
X150476190Y-112855342D01*
X150476190Y-112855342D02*
X150571428Y-112894530D01*
X150571428Y-112894530D02*
X150714285Y-112894530D01*
X149523809Y-112345890D02*
X149523809Y-113012096D01*
X149523809Y-113012096D02*
X149571428Y-113090473D01*
X149571428Y-113090473D02*
X149619047Y-113129662D01*
X149619047Y-113129662D02*
X149714285Y-113168850D01*
X149714285Y-113168850D02*
X149857142Y-113168850D01*
X149857142Y-113168850D02*
X149952380Y-113129662D01*
X149523809Y-112855342D02*
X149619047Y-112894530D01*
X149619047Y-112894530D02*
X149809523Y-112894530D01*
X149809523Y-112894530D02*
X149904761Y-112855342D01*
X149904761Y-112855342D02*
X149952380Y-112816153D01*
X149952380Y-112816153D02*
X149999999Y-112737776D01*
X149999999Y-112737776D02*
X149999999Y-112502644D01*
X149999999Y-112502644D02*
X149952380Y-112424267D01*
X149952380Y-112424267D02*
X149904761Y-112385079D01*
X149904761Y-112385079D02*
X149809523Y-112345890D01*
X149809523Y-112345890D02*
X149619047Y-112345890D01*
X149619047Y-112345890D02*
X149523809Y-112385079D01*
X148619047Y-112894530D02*
X148619047Y-112463456D01*
X148619047Y-112463456D02*
X148666666Y-112385079D01*
X148666666Y-112385079D02*
X148761904Y-112345890D01*
X148761904Y-112345890D02*
X148952380Y-112345890D01*
X148952380Y-112345890D02*
X149047618Y-112385079D01*
X148619047Y-112855342D02*
X148714285Y-112894530D01*
X148714285Y-112894530D02*
X148952380Y-112894530D01*
X148952380Y-112894530D02*
X149047618Y-112855342D01*
X149047618Y-112855342D02*
X149095237Y-112776964D01*
X149095237Y-112776964D02*
X149095237Y-112698587D01*
X149095237Y-112698587D02*
X149047618Y-112620210D01*
X149047618Y-112620210D02*
X148952380Y-112581022D01*
X148952380Y-112581022D02*
X148714285Y-112581022D01*
X148714285Y-112581022D02*
X148619047Y-112541833D01*
X148142856Y-112345890D02*
X148142856Y-113168850D01*
X148142856Y-112385079D02*
X148047618Y-112345890D01*
X148047618Y-112345890D02*
X147857142Y-112345890D01*
X147857142Y-112345890D02*
X147761904Y-112385079D01*
X147761904Y-112385079D02*
X147714285Y-112424267D01*
X147714285Y-112424267D02*
X147666666Y-112502644D01*
X147666666Y-112502644D02*
X147666666Y-112737776D01*
X147666666Y-112737776D02*
X147714285Y-112816153D01*
X147714285Y-112816153D02*
X147761904Y-112855342D01*
X147761904Y-112855342D02*
X147857142Y-112894530D01*
X147857142Y-112894530D02*
X148047618Y-112894530D01*
X148047618Y-112894530D02*
X148142856Y-112855342D01*
X147095237Y-112894530D02*
X147190475Y-112855342D01*
X147190475Y-112855342D02*
X147238094Y-112776964D01*
X147238094Y-112776964D02*
X147238094Y-112071570D01*
X146285713Y-112894530D02*
X146285713Y-112463456D01*
X146285713Y-112463456D02*
X146333332Y-112385079D01*
X146333332Y-112385079D02*
X146428570Y-112345890D01*
X146428570Y-112345890D02*
X146619046Y-112345890D01*
X146619046Y-112345890D02*
X146714284Y-112385079D01*
X146285713Y-112855342D02*
X146380951Y-112894530D01*
X146380951Y-112894530D02*
X146619046Y-112894530D01*
X146619046Y-112894530D02*
X146714284Y-112855342D01*
X146714284Y-112855342D02*
X146761903Y-112776964D01*
X146761903Y-112776964D02*
X146761903Y-112698587D01*
X146761903Y-112698587D02*
X146714284Y-112620210D01*
X146714284Y-112620210D02*
X146619046Y-112581022D01*
X146619046Y-112581022D02*
X146380951Y-112581022D01*
X146380951Y-112581022D02*
X146285713Y-112541833D01*
X145809522Y-112345890D02*
X145809522Y-112894530D01*
X145809522Y-112424267D02*
X145761903Y-112385079D01*
X145761903Y-112385079D02*
X145666665Y-112345890D01*
X145666665Y-112345890D02*
X145523808Y-112345890D01*
X145523808Y-112345890D02*
X145428570Y-112385079D01*
X145428570Y-112385079D02*
X145380951Y-112463456D01*
X145380951Y-112463456D02*
X145380951Y-112894530D01*
X144523808Y-112855342D02*
X144619046Y-112894530D01*
X144619046Y-112894530D02*
X144809522Y-112894530D01*
X144809522Y-112894530D02*
X144904760Y-112855342D01*
X144904760Y-112855342D02*
X144952379Y-112776964D01*
X144952379Y-112776964D02*
X144952379Y-112463456D01*
X144952379Y-112463456D02*
X144904760Y-112385079D01*
X144904760Y-112385079D02*
X144809522Y-112345890D01*
X144809522Y-112345890D02*
X144619046Y-112345890D01*
X144619046Y-112345890D02*
X144523808Y-112385079D01*
X144523808Y-112385079D02*
X144476189Y-112463456D01*
X144476189Y-112463456D02*
X144476189Y-112541833D01*
X144476189Y-112541833D02*
X144952379Y-112620210D01*
X144190474Y-112345890D02*
X143809522Y-112345890D01*
X144047617Y-112071570D02*
X144047617Y-112776964D01*
X144047617Y-112776964D02*
X143999998Y-112855342D01*
X143999998Y-112855342D02*
X143904760Y-112894530D01*
X143904760Y-112894530D02*
X143809522Y-112894530D01*
X142761903Y-112032382D02*
X143619045Y-113090473D01*
X142428569Y-112894530D02*
X142428569Y-112071570D01*
X142428569Y-112071570D02*
X142095236Y-112659399D01*
X142095236Y-112659399D02*
X141761903Y-112071570D01*
X141761903Y-112071570D02*
X141761903Y-112894530D01*
X141285712Y-112894530D02*
X141285712Y-112345890D01*
X141285712Y-112071570D02*
X141333331Y-112110759D01*
X141333331Y-112110759D02*
X141285712Y-112149947D01*
X141285712Y-112149947D02*
X141238093Y-112110759D01*
X141238093Y-112110759D02*
X141285712Y-112071570D01*
X141285712Y-112071570D02*
X141285712Y-112149947D01*
X140809522Y-112894530D02*
X140809522Y-112071570D01*
X140809522Y-112071570D02*
X140428570Y-112071570D01*
X140428570Y-112071570D02*
X140333332Y-112110759D01*
X140333332Y-112110759D02*
X140285713Y-112149947D01*
X140285713Y-112149947D02*
X140238094Y-112228324D01*
X140238094Y-112228324D02*
X140238094Y-112345890D01*
X140238094Y-112345890D02*
X140285713Y-112424267D01*
X140285713Y-112424267D02*
X140333332Y-112463456D01*
X140333332Y-112463456D02*
X140428570Y-112502644D01*
X140428570Y-112502644D02*
X140809522Y-112502644D01*
X140047618Y-112972907D02*
X139285713Y-112972907D01*
X139047617Y-112894530D02*
X139047617Y-112071570D01*
X139047617Y-112071570D02*
X138809522Y-112071570D01*
X138809522Y-112071570D02*
X138666665Y-112110759D01*
X138666665Y-112110759D02*
X138571427Y-112189136D01*
X138571427Y-112189136D02*
X138523808Y-112267513D01*
X138523808Y-112267513D02*
X138476189Y-112424267D01*
X138476189Y-112424267D02*
X138476189Y-112541833D01*
X138476189Y-112541833D02*
X138523808Y-112698587D01*
X138523808Y-112698587D02*
X138571427Y-112776964D01*
X138571427Y-112776964D02*
X138666665Y-112855342D01*
X138666665Y-112855342D02*
X138809522Y-112894530D01*
X138809522Y-112894530D02*
X139047617Y-112894530D01*
X137523808Y-112894530D02*
X138095236Y-112894530D01*
X137809522Y-112894530D02*
X137809522Y-112071570D01*
X137809522Y-112071570D02*
X137904760Y-112189136D01*
X137904760Y-112189136D02*
X137999998Y-112267513D01*
X137999998Y-112267513D02*
X138095236Y-112306702D01*
X137333332Y-112972907D02*
X136571427Y-112972907D01*
X136333331Y-112894530D02*
X136333331Y-112345890D01*
X136333331Y-112424267D02*
X136285712Y-112385079D01*
X136285712Y-112385079D02*
X136190474Y-112345890D01*
X136190474Y-112345890D02*
X136047617Y-112345890D01*
X136047617Y-112345890D02*
X135952379Y-112385079D01*
X135952379Y-112385079D02*
X135904760Y-112463456D01*
X135904760Y-112463456D02*
X135904760Y-112894530D01*
X135904760Y-112463456D02*
X135857141Y-112385079D01*
X135857141Y-112385079D02*
X135761903Y-112345890D01*
X135761903Y-112345890D02*
X135619046Y-112345890D01*
X135619046Y-112345890D02*
X135523807Y-112385079D01*
X135523807Y-112385079D02*
X135476188Y-112463456D01*
X135476188Y-112463456D02*
X135476188Y-112894530D01*
X134999998Y-112894530D02*
X134999998Y-112345890D01*
X134999998Y-112071570D02*
X135047617Y-112110759D01*
X135047617Y-112110759D02*
X134999998Y-112149947D01*
X134999998Y-112149947D02*
X134952379Y-112110759D01*
X134952379Y-112110759D02*
X134999998Y-112071570D01*
X134999998Y-112071570D02*
X134999998Y-112149947D01*
X134523808Y-112345890D02*
X134523808Y-112894530D01*
X134523808Y-112424267D02*
X134476189Y-112385079D01*
X134476189Y-112385079D02*
X134380951Y-112345890D01*
X134380951Y-112345890D02*
X134238094Y-112345890D01*
X134238094Y-112345890D02*
X134142856Y-112385079D01*
X134142856Y-112385079D02*
X134095237Y-112463456D01*
X134095237Y-112463456D02*
X134095237Y-112894530D01*
X133619046Y-112894530D02*
X133619046Y-112345890D01*
X133619046Y-112071570D02*
X133666665Y-112110759D01*
X133666665Y-112110759D02*
X133619046Y-112149947D01*
X133619046Y-112149947D02*
X133571427Y-112110759D01*
X133571427Y-112110759D02*
X133619046Y-112071570D01*
X133619046Y-112071570D02*
X133619046Y-112149947D01*
X133380952Y-112972907D02*
X132619047Y-112972907D01*
X132380951Y-112894530D02*
X132380951Y-112071570D01*
X132380951Y-112071570D02*
X131999999Y-112071570D01*
X131999999Y-112071570D02*
X131904761Y-112110759D01*
X131904761Y-112110759D02*
X131857142Y-112149947D01*
X131857142Y-112149947D02*
X131809523Y-112228324D01*
X131809523Y-112228324D02*
X131809523Y-112345890D01*
X131809523Y-112345890D02*
X131857142Y-112424267D01*
X131857142Y-112424267D02*
X131904761Y-112463456D01*
X131904761Y-112463456D02*
X131999999Y-112502644D01*
X131999999Y-112502644D02*
X132380951Y-112502644D01*
X130952380Y-112894530D02*
X130952380Y-112463456D01*
X130952380Y-112463456D02*
X130999999Y-112385079D01*
X130999999Y-112385079D02*
X131095237Y-112345890D01*
X131095237Y-112345890D02*
X131285713Y-112345890D01*
X131285713Y-112345890D02*
X131380951Y-112385079D01*
X130952380Y-112855342D02*
X131047618Y-112894530D01*
X131047618Y-112894530D02*
X131285713Y-112894530D01*
X131285713Y-112894530D02*
X131380951Y-112855342D01*
X131380951Y-112855342D02*
X131428570Y-112776964D01*
X131428570Y-112776964D02*
X131428570Y-112698587D01*
X131428570Y-112698587D02*
X131380951Y-112620210D01*
X131380951Y-112620210D02*
X131285713Y-112581022D01*
X131285713Y-112581022D02*
X131047618Y-112581022D01*
X131047618Y-112581022D02*
X130952380Y-112541833D01*
X130047618Y-112855342D02*
X130142856Y-112894530D01*
X130142856Y-112894530D02*
X130333332Y-112894530D01*
X130333332Y-112894530D02*
X130428570Y-112855342D01*
X130428570Y-112855342D02*
X130476189Y-112816153D01*
X130476189Y-112816153D02*
X130523808Y-112737776D01*
X130523808Y-112737776D02*
X130523808Y-112502644D01*
X130523808Y-112502644D02*
X130476189Y-112424267D01*
X130476189Y-112424267D02*
X130428570Y-112385079D01*
X130428570Y-112385079D02*
X130333332Y-112345890D01*
X130333332Y-112345890D02*
X130142856Y-112345890D01*
X130142856Y-112345890D02*
X130047618Y-112385079D01*
X129619046Y-112894530D02*
X129619046Y-112071570D01*
X129523808Y-112581022D02*
X129238094Y-112894530D01*
X129238094Y-112345890D02*
X129619046Y-112659399D01*
%TO.C,JP11*%
D13*
X129590000Y-103090000D02*
X130390000Y-103090000D01*
X129590000Y-103890000D02*
X129590000Y-103090000D01*
X129590000Y-104300000D02*
X129790000Y-104300000D01*
X129590000Y-104600000D02*
X129590000Y-104300000D01*
X129690000Y-104600000D02*
X129690000Y-104300000D01*
X129790000Y-104600000D02*
X129590000Y-104600000D01*
X130700000Y-103290000D02*
X130700000Y-103690000D01*
X130700000Y-111010000D02*
X130700000Y-110610000D01*
X131700000Y-103290000D02*
X131700000Y-103690000D01*
X131700000Y-111010000D02*
X131700000Y-110610000D01*
X132710000Y-105550000D02*
X132710000Y-105750000D01*
X132710000Y-105750000D02*
X133110000Y-105750000D01*
X132710000Y-107050000D02*
X132710000Y-107250000D01*
X132710000Y-107250000D02*
X133110000Y-107250000D01*
X132710000Y-108550000D02*
X132710000Y-108750000D01*
X132710000Y-108750000D02*
X133110000Y-108750000D01*
X133110000Y-105550000D02*
X132710000Y-105550000D01*
X133110000Y-105650000D02*
X132710000Y-105650000D01*
X133110000Y-107050000D02*
X132710000Y-107050000D01*
X133110000Y-107150000D02*
X132710000Y-107150000D01*
X133110000Y-108550000D02*
X132710000Y-108550000D01*
X133110000Y-108650000D02*
X132710000Y-108650000D01*
X129790000Y-103290000D02*
X133510000Y-103290000D01*
X133510000Y-111010000D01*
X129790000Y-111010000D01*
X129790000Y-103290000D01*
X130190000Y-103690000D02*
X133110000Y-103690000D01*
X133110000Y-110610000D01*
X130190000Y-110610000D01*
X130190000Y-103690000D01*
%TD*%
M02*
